<svg width="222" height="235" viewBox="0 0 222 235" fill="none" xmlns="http://www.w3.org/2000/svg">
<circle cx="50" cy="52" r="20" fill="#0466CC"/>
<circle cx="50" cy="181" r="20" fill="#0566CD"/>
<circle cx="172" cy="52" r="20" fill="#06A0A3"/>
<circle cx="172" cy="181" r="20" fill="#574AAE"/>
<circle cx="111" cy="12" r="12" fill="#049FA0"/>
<rect x="99" y="12" width="24" height="80" fill="#049FA0"/>
<path d="M112.669 108.47C111.879 109.668 110.121 109.668 109.331 108.47L99.19 93.1015C98.3127 91.7718 99.2663 90 100.859 90H121.141C122.734 90 123.687 91.7718 122.81 93.1015L112.669 108.47Z" fill="#049FA0"/>
<circle cx="12" cy="12" r="12" transform="matrix(1 0 0 -1 99 235)" fill="#334097"/>
<rect width="24" height="80" transform="matrix(1 0 0 -1 99 223)" fill="#334097"/>
<path d="M112.669 126.53C111.879 125.332 110.121 125.332 109.331 126.53L99.19 141.899C98.3127 143.228 99.2663 145 100.859 145H121.141C122.734 145 123.687 143.228 122.81 141.899L112.669 126.53Z" fill="#334097"/>
<circle cx="12" cy="117" r="12" transform="rotate(-90 12 117)" fill="#069EA2"/>
<rect x="12" y="129" width="24" height="80" transform="rotate(-90 12 129)" fill="#069EA2"/>
<path d="M108.47 115.331C109.668 116.121 109.668 117.879 108.47 118.669L93.1015 128.81C91.7718 129.687 90 128.734 90 127.141V106.859C90 105.266 91.7718 104.313 93.1015 105.19L108.47 115.331Z" fill="#069EA2"/>
<circle cx="12" cy="12" r="12" transform="matrix(0 -1 -1 0 222 129)" fill="#313D95"/>
<rect width="24" height="80" transform="matrix(0 -1 -1 0 210 129)" fill="#313D95"/>
<path d="M113.53 115.331C112.332 116.121 112.332 117.879 113.53 118.669L128.899 128.81C130.228 129.687 132 128.734 132 127.141V106.859C132 105.266 130.228 104.313 128.899 105.19L113.53 115.331Z" fill="#313D95"/>
</svg>
